<?xml version="1.0" standalone="no"?>
<!DOCTYPE svg PUBLIC "-//W3C//DTD SVG 20010904//EN"
 "http://www.w3.org/TR/2001/REC-SVG-20010904/DTD/svg10.dtd">
<svg version="1.0" xmlns="http://www.w3.org/2000/svg"
 width="762.000000pt" height="1280.000000pt" viewBox="0 0 762.000000 1280.000000"
 preserveAspectRatio="xMidYMid meet">
<metadata>
Created by potrace 1.15, written by Peter Selinger 2001-2017
</metadata>
<g transform="translate(0.000000,1280.000000) scale(0.100000,-0.100000)"
fill="#000000" stroke="none">
<path d="M1675 12794 c-147 -38 -319 -119 -365 -171 -42 -47 -148 -267 -189
-389 -28 -84 -31 -104 -31 -220 0 -190 14 -292 50 -362 17 -34 34 -88 40 -132
15 -101 22 -119 85 -230 48 -83 165 -341 165 -362 0 -4 -24 -18 -53 -32 -74
-34 -178 -98 -267 -166 -41 -31 -105 -76 -142 -99 -96 -61 -159 -136 -226
-270 l-57 -114 0 -126 0 -126 60 -140 60 -140 -1 -320 c0 -263 -3 -337 -18
-415 -33 -178 -35 -225 -36 -855 -1 -739 -11 -1055 -35 -1135 -27 -88 -112
-296 -171 -418 l-55 -113 26 -31 c44 -52 55 -84 76 -225 11 -76 27 -148 35
-161 20 -31 127 -99 176 -113 21 -5 67 -9 101 -7 59 3 62 4 65 30 4 30 -28 58
-66 58 -28 0 -76 24 -117 58 l-30 25 157 -5 157 -6 25 28 c13 15 40 33 60 40
62 20 55 71 -13 100 -34 14 -51 47 -51 100 0 38 2 40 58 67 33 16 58 36 60 46
2 11 -11 31 -32 51 -36 32 -36 33 -16 51 27 25 25 40 -9 64 -25 18 -29 28 -35
97 -4 43 -14 111 -23 153 -13 61 -14 112 -9 256 9 265 37 437 101 625 60 173
140 527 196 868 32 194 55 283 76 290 15 4 71 -106 111 -218 35 -101 56 -200
77 -370 9 -69 22 -152 30 -185 23 -97 33 -205 45 -481 23 -554 29 -671 41
-723 12 -49 12 -54 -7 -64 -10 -6 -34 -25 -52 -43 -29 -29 -32 -38 -32 -92 0
-58 -1 -61 -40 -92 -50 -40 -51 -59 -5 -150 l35 -70 -53 -78 c-86 -123 -98
-174 -72 -298 5 -23 -12 -84 -73 -265 -44 -129 -95 -272 -112 -319 -39 -102
-42 -164 -12 -270 28 -98 38 -172 62 -482 11 -141 27 -282 35 -312 8 -31 35
-91 60 -134 24 -42 101 -195 169 -339 68 -145 140 -291 159 -325 68 -122 499
-555 757 -761 115 -92 138 -118 195 -222 21 -38 63 -112 93 -163 l55 -94 -17
-34 c-19 -41 -20 -60 -4 -134 11 -55 11 -58 -17 -93 -26 -36 -27 -37 -6 -37
11 0 21 -6 21 -13 0 -8 16 -34 36 -60 29 -37 37 -58 44 -114 9 -65 46 -191 69
-230 8 -14 10 -2 11 49 0 37 4 69 9 72 13 8 52 -116 105 -331 25 -99 59 -215
76 -257 85 -205 213 -319 318 -285 55 17 115 54 179 110 32 28 71 53 87 56 27
6 28 8 22 49 -7 52 9 101 35 109 11 4 25 17 31 30 8 19 6 30 -10 57 -13 20
-25 65 -31 113 -11 91 -16 106 -99 305 -67 161 -97 264 -108 368 -6 67 -5 71
17 83 13 6 27 17 31 23 14 21 8 68 -12 93 -32 40 -27 102 10 138 17 16 30 32
30 37 0 4 -14 27 -30 50 -17 22 -35 59 -41 82 -30 111 -136 197 -352 286 -54
22 -85 42 -101 64 -24 32 -240 443 -365 694 -39 78 -91 202 -116 276 -24 74
-65 176 -90 227 -45 88 -68 128 -199 333 -31 49 -54 91 -51 94 2 3 20 -9 39
-25 39 -35 123 -77 188 -94 60 -16 106 -5 152 36 l40 35 -22 93 c-27 114 -28
150 -1 248 23 84 26 89 114 153 33 24 118 96 189 160 130 118 160 136 199 119
30 -14 260 -235 447 -430 85 -89 210 -211 277 -271 136 -124 164 -154 247
-267 71 -97 122 -152 158 -171 15 -8 47 -48 75 -95 26 -44 108 -158 182 -252
149 -192 202 -267 292 -418 34 -57 84 -132 110 -166 27 -34 64 -86 83 -115 40
-62 74 -95 174 -167 117 -86 172 -154 227 -284 69 -160 109 -228 381 -643 329
-502 345 -534 379 -749 23 -148 55 -233 120 -323 13 -19 31 -59 40 -89 9 -31
69 -160 134 -287 78 -151 123 -252 131 -291 28 -130 26 -130 462 -128 400 1
393 0 393 84 0 70 -47 168 -204 433 -62 103 -111 190 -109 192 2 2 21 -2 41
-8 28 -9 40 -9 49 0 17 17 -6 40 -54 54 -35 10 -108 77 -108 98 0 4 -23 21
-50 39 -62 40 -153 147 -199 232 -19 35 -46 82 -61 104 -78 114 -135 278 -150
426 -19 188 -109 499 -236 821 -80 204 -129 302 -236 473 -52 83 -110 179
-128 215 -22 42 -67 99 -127 160 -179 185 -199 208 -262 315 -178 299 -278
563 -228 602 6 6 35 13 62 16 70 8 194 50 303 103 78 38 92 48 92 68 0 39 -69
191 -138 305 -35 58 -108 192 -162 296 -105 205 -121 234 -227 400 -38 61 -85
137 -103 170 -50 89 -104 141 -206 201 l-91 53 -6 106 c-8 122 -21 154 -77
191 -51 34 -106 41 -166 20 -26 -9 -48 -15 -50 -13 -5 6 -35 214 -44 312 -27
275 -133 653 -274 973 -68 154 -202 516 -254 687 -42 136 -68 249 -87 380 -9
61 -27 162 -41 225 -49 229 -85 407 -98 488 -16 100 -11 105 60 69 64 -32 208
-80 309 -102 92 -20 203 -48 325 -81 150 -41 292 -26 344 37 22 26 26 40 26
98 0 95 -27 238 -52 280 -41 68 -132 186 -188 246 -31 33 -83 99 -114 147 -67
102 -154 185 -316 300 -142 101 -156 113 -187 162 -34 53 -191 214 -286 294
-43 36 -97 90 -120 121 -57 79 -155 171 -202 192 -22 9 -83 25 -135 35 -52 9
-130 30 -173 45 -69 26 -92 29 -190 29 -62 0 -159 -5 -217 -11 -91 -10 -110
-9 -144 5 -21 9 -53 16 -71 16 -93 0 -170 238 -121 377 39 112 46 398 12 553
-27 124 -124 306 -207 389 -84 83 -225 165 -341 197 -53 15 -285 28 -323 18z"/>
<path d="M710 1811 c-106 -28 -210 -73 -293 -128 -205 -136 -374 -395 -408
-623 -14 -98 -7 -274 16 -368 76 -317 349 -589 675 -673 71 -18 333 -18 415 0
141 31 306 118 417 220 192 176 311 471 295 733 -6 108 -25 182 -72 291 -56
130 -95 186 -210 303 -98 99 -121 116 -205 158 -136 67 -264 97 -425 102 -105
3 -145 0 -205 -15z"/>
</g>
</svg>
