<?xml version="1.0" standalone="no"?>
<!DOCTYPE svg PUBLIC "-//W3C//DTD SVG 20010904//EN"
 "http://www.w3.org/TR/2001/REC-SVG-20010904/DTD/svg10.dtd">
<svg version="1.0" xmlns="http://www.w3.org/2000/svg"
 width="640.000000pt" height="1280.000000pt" viewBox="0 0 640.000000 1280.000000"
 preserveAspectRatio="xMidYMid meet">
<metadata>
Created by potrace 1.15, written by Peter Selinger 2001-2017
</metadata>
<g transform="translate(0.000000,1280.000000) scale(0.100000,-0.100000)"
fill="#000000" stroke="none">
<path d="M5379 12781 c9 -16 3 -19 -72 -34 -109 -21 -254 -93 -319 -158 -179
-179 -223 -422 -118 -647 16 -35 37 -92 46 -126 8 -33 29 -105 46 -160 40
-131 38 -203 -10 -263 -44 -55 -65 -110 -58 -146 4 -18 33 -59 74 -102 53 -55
70 -81 75 -111 19 -110 47 -321 57 -414 12 -122 8 -170 -49 -605 -22 -165 -44
-349 -50 -410 -12 -121 -63 -472 -87 -605 -21 -112 -33 -146 -120 -337 -41
-90 -86 -199 -101 -242 -24 -73 -29 -81 -62 -95 -20 -8 -40 -11 -44 -6 -5 4
-11 34 -14 66 -5 56 -3 62 36 122 24 36 41 75 41 91 0 24 -43 146 -90 259 -6
13 -10 50 -10 82 l0 60 -47 32 c-27 17 -79 69 -116 115 -66 80 -70 83 -140
105 -101 31 -234 31 -337 -1 -135 -42 -266 -119 -352 -208 -75 -77 -81 -99
-68 -266 6 -78 13 -154 16 -169 5 -27 5 -27 -23 -13 -41 22 -86 19 -110 -7
-22 -24 -83 -249 -83 -304 0 -39 35 -72 119 -115 125 -63 192 -47 284 68 l48
60 84 -44 84 -43 -20 -59 -20 -59 -92 -37 c-140 -58 -405 -174 -468 -206 -41
-20 -70 -46 -107 -93 -28 -35 -91 -106 -139 -156 l-88 -91 -400 -134 c-512
-171 -609 -208 -784 -307 -262 -147 -522 -263 -648 -289 -56 -12 -72 -11 -165
10 -57 12 -143 31 -193 41 -100 22 -199 26 -242 9 -40 -15 -71 -47 -99 -102
-51 -100 -41 -195 30 -262 104 -100 261 -144 336 -93 19 13 41 37 49 55 l14
31 106 4 c87 4 116 10 162 31 67 30 194 57 629 132 442 75 504 90 565 129 144
94 414 230 585 296 259 98 436 172 529 221 52 27 106 49 120 49 45 0 124 -64
194 -157 86 -115 202 -340 268 -518 30 -83 32 -99 31 -197 -3 -189 -47 -338
-119 -397 -20 -16 -117 -64 -217 -106 -303 -129 -409 -178 -442 -207 -30 -26
-137 -200 -309 -501 -77 -134 -78 -123 22 -194 67 -47 113 -96 113 -118 0 -35
-343 -532 -427 -620 -29 -30 -176 -136 -365 -263 -565 -379 -668 -459 -729
-565 -23 -40 -76 -121 -117 -182 -162 -235 -192 -270 -384 -432 -155 -131
-207 -168 -342 -244 -87 -50 -200 -105 -252 -124 -51 -18 -104 -41 -118 -50
-50 -33 -31 -73 110 -235 136 -158 281 -290 318 -290 46 0 192 177 264 321 56
110 198 294 315 406 77 73 110 97 197 140 232 114 748 494 839 617 48 65 93
93 216 136 165 57 315 152 580 365 152 122 160 128 470 316 408 247 619 392
655 451 l18 31 26 -27 c30 -29 59 -92 71 -151 16 -81 -2 -515 -40 -960 -19
-223 -21 -233 -57 -348 l-31 -98 21 -87 c12 -49 22 -100 22 -115 0 -15 -18
-74 -39 -131 -78 -207 -92 -330 -96 -846 -4 -536 -17 -578 -184 -629 -87 -26
-129 -70 -162 -167 -36 -110 -32 -171 29 -354 29 -86 76 -242 107 -348 30
-106 66 -219 80 -251 33 -74 93 -133 169 -166 128 -57 223 -39 266 50 20 41
22 57 17 123 -3 44 -21 130 -42 202 -66 222 -87 314 -89 385 -1 66 2 74 42
140 61 99 80 173 91 339 13 190 45 312 218 816 l98 285 -3 198 c-2 125 1 220
9 255 6 32 67 199 136 372 132 333 241 629 267 720 14 50 52 347 121 950 15
124 29 299 32 390 9 255 -34 1576 -63 1935 -31 402 -59 589 -110 760 -25 83
-37 148 -41 210 -5 90 -5 91 55 270 114 337 143 503 121 688 -11 95 -10 136 5
315 39 453 40 515 9 590 -37 90 -68 552 -61 917 6 295 38 444 112 532 15 18
98 77 184 132 283 179 389 327 400 553 4 80 0 110 -18 170 -40 133 -117 237
-232 314 -40 27 -74 52 -76 56 -5 11 -58 26 -157 44 -49 9 -111 25 -138 35
-59 23 -60 23 -48 0z"/>
</g>
</svg>
